<?xml version="1.0" standalone="no"?>
<!DOCTYPE svg PUBLIC "-//W3C//DTD SVG 20010904//EN"
 "http://www.w3.org/TR/2001/REC-SVG-20010904/DTD/svg10.dtd">
<svg version="1.0" xmlns="http://www.w3.org/2000/svg"
 width="375.000000pt" height="375.000000pt" viewBox="0 0 375.000000 375.000000"
 preserveAspectRatio="xMidYMid meet">
<metadata>
Created by potrace 1.14, written by Peter Selinger 2001-2017
</metadata>
<g transform="translate(0.000000,375.000000) scale(0.100000,-0.100000)"
fill="#000000" stroke="none">
<path d="M1708 3645 c-1 -1 -41 -6 -88 -9 -257 -19 -525 -89 -735 -192 -44
-21 -81 -42 -83 -46 -2 -5 -8 -8 -14 -8 -22 0 -168 -110 -243 -185 -122 -119
-175 -196 -261 -373 -40 -83 -108 -270 -118 -327 -2 -11 -9 -38 -14 -60 -10
-34 -20 -94 -38 -205 -22 -144 -27 -425 -9 -525 22 -120 22 -122 56 -235 87
-294 264 -656 431 -881 106 -143 276 -283 428 -352 71 -33 221 -80 285 -92 17
-2 39 -7 50 -9 12 -2 48 -7 80 -11 33 -4 71 -9 85 -12 14 -2 120 -6 235 -8
170 -2 230 1 314 16 192 34 367 93 586 200 91 44 327 186 345 208 3 4 41 36
85 73 109 90 191 182 279 313 113 166 217 441 241 635 3 30 10 82 15 115 11
81 10 254 -2 340 -23 169 -83 338 -214 596 -43 84 -81 158 -86 164 -4 5 -39
57 -77 115 -272 413 -683 679 -1151 745 -47 7 -376 16 -382 10z m369 -725 c37
-13 67 -63 65 -110 -2 -36 0 -37 28 -34 46 5 91 -26 123 -85 16 -29 27 -54 25
-57 -3 -2 -19 23 -37 55 -25 44 -41 61 -65 68 -41 13 -88 8 -101 -10 -16 -21
-51 -37 -84 -37 -20 0 -35 -8 -45 -22 -18 -25 -22 -17 -6 12 8 14 5 21 -13 33
-13 8 -28 31 -34 51 -17 56 2 104 52 130 35 19 52 20 92 6z m-216 -215 c51
-27 65 -102 27 -150 -15 -20 -19 -32 -12 -43 18 -27 27 -18 44 44 18 63 39
109 46 101 2 -2 -2 -17 -10 -33 -16 -32 -43 -123 -41 -139 0 -5 12 -30 27 -54
l26 -43 16 28 c8 16 15 22 15 14 0 -8 -6 -24 -14 -34 -8 -11 -15 -35 -15 -53
0 -26 4 -33 19 -33 23 0 68 44 91 90 l17 35 -33 42 -32 42 -11 -31 c-6 -17
-13 -29 -16 -26 -3 3 1 21 9 40 8 19 11 39 7 44 -5 5 -12 20 -16 34 -3 14 13
-7 36 -47 23 -40 48 -74 55 -77 9 -3 18 9 25 37 17 58 19 67 26 110 3 21 10
40 14 43 19 11 -21 -144 -56 -222 -28 -61 -73 -115 -121 -145 -27 -16 -32 -24
-24 -34 6 -8 20 -12 30 -10 14 3 17 -1 13 -13 -12 -29 139 131 174 185 36 56
59 116 69 179 7 47 14 57 14 22 0 -72 -73 -227 -139 -295 -20 -21 -21 -31 -19
-155 l3 -133 57 -1 58 0 -2 112 c-1 62 1 117 6 121 4 4 7 4 6 -2 -1 -5 -2 -61
-1 -123 l1 -112 25 4 c14 3 25 0 25 -5 0 -14 -177 -11 -186 3 -4 6 -7 67 -6
134 1 136 -3 141 -51 73 -15 -22 -31 -38 -35 -35 -5 3 -8 -34 -7 -82 1 -48 -1
-93 -3 -99 -7 -21 -38 -15 -39 7 -1 11 3 20 8 20 6 0 8 -4 4 -9 -3 -5 -1 -12
5 -16 6 -4 10 24 10 80 0 47 -4 84 -8 81 -5 -3 -8 -30 -7 -61 1 -31 -1 -58 -5
-60 -4 -2 -6 16 -5 40 1 25 -1 45 -4 45 -4 0 -22 -19 -41 -42 -19 -24 -46 -55
-60 -70 l-25 -28 -197 17 -198 17 2 40 1 41 4 -37 4 -38 52 -1 c29 0 60 -2 71
-4 10 -2 62 -7 115 -10 53 -4 105 -8 117 -10 18 -2 21 4 22 37 2 36 0 38 -31
39 -53 2 -99 6 -147 12 -25 4 -88 9 -140 13 -52 4 -102 8 -110 9 -8 2 -19 4
-25 4 -9 1 39 49 148 143 54 48 107 74 108 55 0 -9 2 -9 6 0 3 8 11 10 21 5 9
-5 34 -10 55 -11 l37 -2 2 48 2 48 3 -47 c4 -46 6 -48 34 -48 16 0 29 -4 29
-9 0 -5 -21 -7 -47 -5 l-47 3 39 -24 c22 -13 50 -25 62 -25 24 0 43 26 35 49
-2 8 0 11 5 8 5 -3 19 1 31 9 18 12 20 19 12 40 -10 26 -14 71 -6 63 3 -3 8
-20 11 -38 3 -19 8 -38 11 -43 3 -5 -14 -31 -39 -57 -32 -34 -51 -47 -66 -44
-14 2 -20 -1 -16 -7 4 -6 -1 -22 -9 -35 -9 -14 -13 -25 -9 -25 10 0 86 61 91
72 2 5 8 8 14 8 5 0 25 12 44 26 24 18 34 34 34 53 -1 64 -92 188 -131 178
-10 -3 -19 -1 -19 4 0 5 9 9 20 9 12 0 32 12 45 26 49 53 21 132 -55 153 -26
7 -29 9 -12 10 13 1 36 -6 53 -14z m-104 -18 c-54 -43 -43 -138 18 -153 24 -6
24 -7 -20 -40 -44 -34 -65 -76 -65 -131 0 -13 -4 -23 -9 -23 -10 0 6 96 21
123 5 10 22 26 38 36 l29 17 -30 28 c-39 37 -41 100 -4 140 13 14 30 26 37 26
7 0 0 -10 -15 -23z m593 -150 c13 -66 21 -201 12 -192 -4 3 -7 34 -9 67 -3 64
-16 148 -29 183 -5 15 -4 17 4 10 7 -6 17 -37 22 -68z m13 -304 c-4 -129 -13
-132 -13 -5 0 56 4 102 8 102 5 0 7 -43 5 -97z m-3 -133 c0 -11 -4 -20 -8 -20
-4 0 -8 9 -9 20 -1 11 2 20 8 20 5 0 9 -9 9 -20z m-8 -65 c-3 -20 -10 -25 -33
-25 -16 0 -29 4 -29 9 0 4 10 8 23 7 16 -1 23 5 25 22 2 12 7 20 11 17 5 -2 6
-16 3 -30z m-1379 -325 c4 -16 7 -33 9 -38 11 -43 25 -128 22 -134 -2 -3 -30
-10 -62 -14 -105 -14 -112 -12 -112 39 0 23 -4 27 -29 27 -36 0 -49 -16 -67
-82 -33 -120 -4 -308 63 -409 46 -69 82 -63 84 15 1 28 2 58 3 65 1 12 19 15
86 15 l85 1 -2 -59 c-8 -179 -166 -284 -289 -191 -46 35 -88 99 -118 180 -68
178 -64 385 8 548 28 63 14 59 212 65 l101 3 6 -31z m382 9 c39 -7 74 -16 79
-20 5 -5 10 -84 11 -176 3 -227 20 -327 82 -481 36 -91 39 -108 21 -110 -38
-3 -66 -10 -86 -21 -25 -14 -29 -9 -35 49 -3 19 -9 47 -15 63 -11 26 -15 27
-77 27 -45 0 -67 -4 -71 -13 -4 -11 -10 -91 -13 -190 -1 -23 -5 -27 -23 -22
-23 5 -46 9 -120 21 -21 4 -38 8 -38 10 0 2 11 38 24 81 31 99 82 303 91 368
4 28 9 59 11 70 10 50 24 164 31 240 5 62 10 117 12 124 1 2 11 1 24 -3 12 -3
54 -11 92 -17z m536 10 c50 -17 99 -57 114 -93 14 -35 27 -145 17 -147 -20 -4
-149 -5 -159 -1 -8 2 -13 23 -13 53 0 36 -4 51 -18 58 -25 13 -69 7 -91 -13
-16 -14 -17 -22 -8 -63 10 -41 19 -52 82 -98 97 -73 150 -134 158 -180 1 -11
5 -25 9 -30 9 -14 20 -98 22 -169 1 -51 -1 -60 -21 -73 -46 -30 -166 -61 -230
-60 -53 2 -66 6 -92 31 -40 38 -61 97 -63 171 -1 105 -8 97 75 89 39 -4 79 -8
87 -9 14 -2 15 -19 5 -124 l-3 -33 40 6 c68 11 77 20 76 74 0 26 -7 65 -16 87
-19 50 -101 131 -157 155 -53 23 -65 40 -101 145 -27 79 -28 87 -14 112 21 37
105 100 149 111 51 14 112 14 152 1z m627 -90 c2 -75 1 -80 -17 -74 -45 14
-70 18 -138 20 -59 3 -72 0 -76 -14 -2 -9 -3 -68 -3 -131 l1 -115 40 3 c22 2
44 7 50 12 21 17 32 -6 31 -60 -1 -40 -5 -54 -15 -52 -7 1 -35 4 -61 7 -59 5
-59 6 -59 -127 l0 -96 47 -4 c26 -2 74 2 107 9 33 8 67 15 75 16 12 2 15 -13
17 -73 2 -97 1 -101 -34 -90 -37 11 -188 27 -333 34 -43 2 -45 3 -44 31 1 17
11 70 23 119 33 141 43 318 26 471 -8 77 -9 80 -24 144 -5 25 -8 48 -5 53 3 4
21 5 41 2 71 -11 214 -11 275 0 35 7 66 8 69 4 3 -5 6 -44 7 -89z m157 85 c22
-3 51 -7 65 -9 71 -13 298 0 357 20 18 6 28 -23 27 -70 -4 -109 1 -98 -46 -90
-77 13 -136 16 -142 7 -24 -39 -24 -418 0 -577 2 -16 5 -43 7 -60 l2 -30 -65
-5 c-36 -3 -76 -4 -88 -2 -23 3 -24 6 -17 55 17 135 21 215 19 382 -1 100 -5
196 -9 214 l-7 33 -62 -6 c-33 -3 -78 -8 -98 -12 -42 -7 -39 -14 -39 86 0 87
-2 83 29 75 15 -4 45 -9 67 -11z"/>
<path d="M1984 2901 c-58 -35 -62 -118 -8 -160 32 -25 64 -27 104 -6 35 18 50
43 50 85 0 41 -24 76 -62 89 -41 15 -48 14 -84 -8z"/>
<path d="M1595 2310 c-3 -5 1 -10 9 -10 9 0 16 5 16 10 0 6 -4 10 -9 10 -6 0
-13 -4 -16 -10z"/>
<path d="M1630 2311 c0 -6 5 -13 10 -16 6 -3 10 1 10 9 0 9 -4 16 -10 16 -5 0
-10 -4 -10 -9z"/>
<path d="M1482 2229 c-51 -45 -90 -85 -87 -87 6 -6 4 -6 135 -16 52 -4 104
-10 115 -13 13 -3 4 9 -24 34 l-44 39 49 39 c54 43 84 71 84 80 0 11 -38 4
-49 -9 -14 -17 -69 -15 -80 2 -5 9 -35 -11 -99 -69z"/>
<path d="M1876 2235 c-47 -36 -88 -65 -91 -65 -3 0 -19 -12 -36 -27 -27 -24
-28 -28 -12 -34 10 -3 33 -6 52 -5 30 1 43 10 89 64 29 35 51 66 49 69 -3 3 9
18 26 34 58 52 11 30 -77 -36z"/>
<path d="M1655 2235 c-33 -29 -58 -55 -55 -57 3 -2 24 -19 47 -37 l43 -32 35
27 c20 15 34 33 31 40 -2 6 4 20 15 30 14 13 16 20 8 31 -6 7 -8 13 -3 13 5 0
-4 9 -21 20 -16 11 -32 20 -35 20 -3 -1 -32 -25 -65 -55z m75 -15 c6 -11 9
-20 7 -20 -2 0 -12 9 -22 20 -10 11 -13 20 -7 20 6 0 16 -9 22 -20z m-36 -24
c29 -26 33 -38 11 -30 -8 4 -15 12 -15 20 0 8 -7 14 -15 14 -8 0 -15 5 -15 10
0 15 6 12 34 -14z m0 -55 c-2 -2 -17 8 -33 22 -16 13 -27 28 -23 31 6 7 62
-46 56 -53z"/>
<path d="M1945 2229 c-4 -6 -5 -12 -2 -15 2 -3 7 2 10 11 7 17 1 20 -8 4z"/>
<path d="M1966 2207 c3 -10 9 -15 12 -12 3 3 0 11 -7 18 -10 9 -11 8 -5 -6z"/>
<path d="M1877 2148 c-36 -42 -47 -63 -47 -89 l0 -34 45 50 c57 63 63 75 56
104 -6 23 -9 22 -54 -31z"/>
<path d="M1320 1371 c-10 -37 -21 -95 -35 -181 -12 -80 -15 -75 45 -76 30 -1
58 0 61 2 3 2 0 34 -7 71 -21 116 -25 137 -31 181 -7 53 -19 54 -33 3z"/>
<path d="M3718 594 c-5 -4 -8 -130 -8 -280 0 -186 -3 -275 -11 -280 -6 -3
-836 -6 -1845 -7 -1008 0 -1831 -3 -1829 -7 3 -5 830 -8 1839 -8 1401 -1 1838
2 1850 11 15 11 16 44 14 295 -2 156 -6 280 -10 276z"/>
</g>
</svg>
