<?xml version="1.0" standalone="no"?>
<!DOCTYPE svg PUBLIC "-//W3C//DTD SVG 20010904//EN"
 "http://www.w3.org/TR/2001/REC-SVG-20010904/DTD/svg10.dtd">
<svg version="1.0" xmlns="http://www.w3.org/2000/svg"
 width="512.000000pt" height="512.000000pt" viewBox="0 0 512.000000 512.000000"
 preserveAspectRatio="xMidYMid meet">

<g transform="translate(0.000000,512.000000) scale(0.100000,-0.100000)"
fill="#000000" stroke="none">
<path d="M2155 4686 c-152 -48 -265 -163 -311 -315 -18 -61 -18 -185 1 -248
98 -331 512 -437 756 -194 202 202 171 539 -65 695 -84 56 -153 76 -255 75
-47 0 -104 -6 -126 -13z m247 -262 c107 -75 123 -225 34 -322 -62 -69 -179
-86 -261 -37 -65 38 -98 92 -103 170 -5 72 12 118 62 167 46 46 82 59 158 55
56 -2 74 -8 110 -33z"/>
<path d="M3475 4396 c-28 -12 -65 -39 -82 -59 -62 -71 -64 -91 -61 -634 3
-477 3 -489 24 -528 30 -55 70 -94 124 -119 42 -20 65 -21 333 -24 l287 -4 0
-44 0 -44 -153 0 c-190 0 -240 -12 -302 -75 -49 -48 -75 -117 -75 -197 l0 -48
-172 0 -173 0 0 252 c0 286 -10 356 -70 476 -93 184 -260 301 -471 327 -68 9
-77 3 -254 -144 -79 -67 -147 -121 -150 -121 -4 0 -74 58 -157 128 -82 71
-158 132 -167 135 -47 18 -185 -10 -281 -57 -116 -58 -223 -168 -277 -288 -60
-130 -78 -365 -55 -678 l2 -25 -160 -5 c-98 -3 -168 -10 -181 -17 -33 -19 -57
-78 -49 -121 8 -43 52 -87 96 -96 54 -11 2630 -7 2670 4 19 6 46 22 60 36 22
23 24 36 29 147 l5 122 413 3 412 2 0 -1114 0 -1114 26 -31 c46 -55 124 -59
173 -10 16 15 31 42 35 60 3 17 6 532 6 1143 l0 1111 -24 50 c-53 115 -126
145 -353 145 l-153 0 0 44 0 44 288 4 287 3 58 28 c31 16 68 43 82 61 54 71
55 78 55 610 l0 491 -24 50 c-28 60 -66 97 -126 124 -44 20 -62 21 -745 21
l-700 0 -50 -24z m1405 -666 l0 -450 -655 0 -655 0 0 450 0 450 655 0 655 0 0
-450z m-2847 -431 c84 -73 166 -140 182 -150 31 -19 79 -24 112 -12 14 5 224
176 346 281 40 35 177 -41 243 -133 58 -82 68 -143 69 -390 0 -121 -3 -232 -8
-247 -7 -27 -10 -28 -73 -28 l-65 0 2 198 c3 218 -1 235 -54 257 -71 29 -136
-19 -138 -103 -1 -26 -4 -114 -8 -197 l-6 -150 -355 0 -355 0 -5 195 c-5 165
-8 199 -24 222 -37 55 -125 56 -161 2 -14 -22 -16 -54 -14 -222 l2 -197 -65
-3 -65 -3 -6 48 c-24 185 -15 418 19 529 35 112 162 226 262 233 7 1 81 -58
165 -130z"/>
<path d="M2396 3094 c-9 -8 -16 -31 -16 -50 0 -32 -2 -34 -34 -34 -35 0 -66
-21 -66 -45 0 -24 31 -45 66 -45 32 0 34 -2 34 -34 0 -35 21 -66 45 -66 24 0
45 31 45 66 0 32 2 34 34 34 35 0 66 21 66 45 0 24 -31 45 -66 45 -32 0 -34 2
-34 34 0 35 -21 66 -45 66 -7 0 -21 -7 -29 -16z"/>
<path d="M351 4189 c-225 -44 -382 -273 -342 -500 63 -349 497 -481 740 -224
88 93 127 203 119 329 -19 261 -260 446 -517 395z m157 -244 c73 -31 122 -103
122 -180 0 -178 -228 -262 -343 -126 -127 152 39 382 221 306z"/>
<path d="M320 3215 c-61 -19 -147 -80 -186 -132 -18 -23 -43 -68 -56 -100
l-23 -58 2 -514 c2 -439 5 -522 19 -570 51 -179 194 -320 369 -366 45 -11 116
-15 302 -15 l242 0 3 -412 c3 -399 4 -415 25 -460 75 -163 276 -240 434 -166
76 35 133 88 166 156 l28 57 3 569 c3 627 2 643 -59 738 -34 53 -93 109 -139
133 -77 40 -118 45 -377 45 l-252 0 -3 413 -3 412 -27 57 c-37 80 -107 152
-186 190 -55 27 -77 32 -151 35 -55 2 -102 -2 -131 -12z m188 -245 c18 -11 41
-34 52 -52 19 -32 20 -52 20 -488 0 -439 1 -456 20 -488 36 -59 55 -62 398
-62 305 0 310 0 343 -23 71 -47 69 -30 69 -629 l0 -537 -24 -28 c-34 -39 -98
-39 -132 0 l-24 28 0 457 c0 435 -1 459 -20 489 -34 57 -37 58 -390 63 -311 5
-327 6 -366 27 -58 31 -103 79 -130 138 -22 49 -22 58 -26 535 -3 452 -2 487
15 518 37 68 128 92 195 52z"/>
</g>
</svg>
