<?xml version="1.0" standalone="no"?>
<!DOCTYPE svg PUBLIC "-//W3C//DTD SVG 20010904//EN"
 "http://www.w3.org/TR/2001/REC-SVG-20010904/DTD/svg10.dtd">
<svg version="1.0" xmlns="http://www.w3.org/2000/svg"
 width="512.000000pt" height="512.000000pt" viewBox="0 0 512.000000 512.000000"
 preserveAspectRatio="xMidYMid meet">

<g transform="translate(0.000000,512.000000) scale(0.100000,-0.100000)"
fill="#000000" stroke="none">
<path d="M1770 4556 c-421 -177 -775 -332 -787 -344 -27 -25 -30 -68 -8 -99 8
-12 43 -31 80 -43 l65 -22 0 -98 c0 -91 -2 -99 -21 -105 -33 -11 -88 -65 -112
-109 -18 -35 -22 -61 -25 -183 -4 -141 -4 -142 22 -168 l25 -25 191 0 191 0
25 25 c26 26 26 27 22 168 -3 122 -7 148 -25 183 -24 44 -79 98 -112 109 -19
6 -21 14 -21 76 0 38 3 69 7 69 14 0 348 -112 355 -119 5 -4 -22 -96 -58 -204
-70 -209 -73 -234 -31 -262 13 -8 230 -49 518 -97 l496 -82 488 82 c290 49
498 88 512 97 42 28 39 53 -31 262 -36 108 -63 200 -58 204 4 3 152 55 330
114 240 80 326 112 337 128 20 29 19 70 -2 95 -21 24 -1555 672 -1587 671 -12
0 -365 -146 -786 -323z m1070 -312 c134 -20 258 -58 375 -113 140 -66 177
-120 120 -176 -34 -35 -60 -31 -156 18 -351 179 -875 179 -1231 1 -100 -50
-129 -54 -163 -19 -53 52 -22 106 94 164 261 132 619 178 961 125z m-1577
-565 c12 -16 17 -39 17 -90 l0 -69 -80 0 -80 0 0 66 c0 36 5 74 11 85 23 43
99 47 132 8z"/>
<path d="M1025 3109 c-92 -35 -135 -105 -135 -222 l0 -77 -54 -24 c-67 -30
-133 -94 -166 -161 l-25 -50 0 -945 0 -945 36 -65 c23 -43 52 -78 85 -102 96
-73 -44 -68 1795 -68 l1658 0 58 21 c68 26 138 91 173 164 l25 50 0 945 0 945
-25 50 c-33 67 -99 131 -164 160 l-54 24 -3 89 c-5 113 -30 156 -114 197 -55
28 -58 28 -188 21 -490 -26 -901 -110 -1319 -272 -47 -18 -49 -18 -95 0 -312
123 -682 211 -1048 250 -201 22 -404 28 -440 15z m440 -175 c343 -39 694 -123
983 -236 l32 -12 0 -1017 0 -1016 -142 48 c-343 115 -732 187 -1118 205 -74 4
-143 11 -152 16 -17 8 -18 67 -18 1011 0 789 3 1006 13 1016 14 16 195 9 402
-15z m2593 14 c9 -9 12 -248 12 -1015 l0 -1003 -22 -9 c-13 -5 -104 -14 -203
-20 -370 -23 -746 -94 -1055 -200 -63 -21 -123 -42 -132 -46 -17 -7 -18 45
-18 1012 l0 1019 113 41 c147 54 290 95 460 133 311 69 811 122 845 88z"/>
<path d="M1221 2733 c-11 -10 -24 -32 -27 -50 -5 -27 -1 -37 22 -61 28 -27 35
-29 175 -41 161 -14 178 -10 199 39 14 33 0 73 -32 93 -22 14 -198 37 -279 37
-20 0 -46 -8 -58 -17z"/>
<path d="M1218 2470 c-25 -26 -29 -36 -24 -63 9 -50 35 -64 128 -72 46 -4 135
-13 198 -22 221 -28 235 -28 259 -4 39 39 24 109 -26 129 -40 15 -404 62 -485
62 -11 0 -33 -14 -50 -30z"/>
<path d="M1220 2042 c-34 -34 -36 -50 -15 -92 18 -35 22 -37 170 -50 245 -22
534 -74 747 -136 66 -19 128 -34 139 -34 30 0 69 44 69 78 0 53 -26 70 -155
108 -224 64 -576 126 -847 149 -77 7 -78 6 -108 -23z"/>
<path d="M1229 1760 c-29 -17 -43 -66 -29 -99 15 -36 44 -48 140 -56 284 -24
551 -73 866 -162 58 -16 63 -16 88 0 53 35 45 110 -15 140 -102 49 -549 142
-834 172 -162 17 -194 18 -216 5z"/>
<path d="M1233 1448 c-33 -16 -48 -61 -33 -98 17 -40 30 -46 125 -54 265 -22
529 -69 784 -138 141 -38 156 -40 180 -27 49 28 54 104 8 133 -47 31 -381 112
-617 150 -97 16 -375 47 -407 45 -10 0 -28 -5 -40 -11z"/>
<path d="M3715 2059 c-346 -33 -865 -147 -907 -200 -27 -33 -23 -83 8 -108 15
-12 35 -21 45 -21 9 0 73 16 141 36 212 61 498 112 743 134 131 12 157 20 174
57 17 37 14 52 -18 84 -32 32 -34 32 -186 18z"/>
<path d="M3745 1763 c-324 -29 -853 -139 -925 -192 -47 -34 -32 -123 24 -137
13 -3 69 8 127 24 255 73 501 119 769 143 72 6 134 17 147 25 49 31 53 84 11
124 -22 20 -49 22 -153 13z"/>
<path d="M3711 1449 c-321 -31 -846 -144 -901 -194 -29 -26 -26 -80 5 -110 29
-30 44 -31 126 -6 226 69 529 126 799 151 132 12 163 22 179 56 17 38 14 53
-18 85 -32 32 -39 33 -190 18z"/>
</g>
</svg>
